<svg width="93" height="93" viewBox="0 0 93 93" fill="none" xmlns="http://www.w3.org/2000/svg">
<path d="M9.10241 40.7705C8.72469 39.3616 8.72464 37.8781 9.10225 36.4692C9.47987 35.0603 10.2218 33.7755 11.2536 32.7442L32.7525 11.251C33.7841 10.2196 35.0692 9.47782 36.4785 9.10031C37.8878 8.72279 39.3717 8.72285 40.781 9.10046L60.8986 14.4895C61.108 11.7342 62.0675 9.08865 63.6733 6.83943L39.4431 0.34937C37.7039 -0.116467 35.8727 -0.116457 34.1336 0.349401C32.3944 0.81526 30.8085 1.73056 29.5353 3.0033L3.0041 29.5274C1.73101 30.8003 0.815475 32.3857 0.349495 34.1244C-0.116488 35.8631 -0.116498 37.6938 0.349464 39.4325L7.091 64.5852C9.29482 62.9027 11.9186 61.8577 14.676 61.5646L9.10241 40.7705Z" fill="#12A09C"/>
<path d="M78.1377 30.7142L83.8974 52.2034C84.2753 53.6125 84.2748 55.0958 83.8974 56.5045C83.5196 57.9137 82.7775 59.1983 81.7458 60.2297L60.2469 81.7234C59.2152 82.7548 57.9302 83.4962 56.5207 83.8739C55.1116 84.2512 53.6274 84.2512 52.2184 83.8739L31.4187 78.3018C31.1256 81.0586 30.0805 83.6818 28.3973 85.8848L53.5568 92.6245C55.2958 93.0905 57.1271 93.0905 58.8661 92.6245C60.6056 92.1585 62.1912 91.2436 63.4645 89.9706L89.9957 63.4465C91.2691 62.1735 92.1842 60.5883 92.6504 58.8493C93.1165 57.1108 93.1165 55.2799 92.6504 53.5414L85.6546 27.447C83.4974 29.2073 80.8962 30.3379 78.1377 30.7142Z" fill="#12A09C"/>
<path d="M7.69595 68.0542C5.99203 69.7574 4.83164 71.9282 4.36153 74.2906C3.89141 76.6535 4.13268 79.1026 5.05484 81.3284C5.97695 83.5536 7.53855 85.456 9.54209 86.7946C11.5457 88.1326 13.9012 88.8473 16.3109 88.8473C18.7206 88.8473 21.0761 88.1326 23.0797 86.7946C25.0833 85.456 26.6449 83.5536 27.567 81.3284C28.4891 79.1026 28.7304 76.6535 28.2603 74.2906C27.7902 71.9282 26.6298 69.7574 24.9259 68.0542C22.6393 65.7735 19.541 64.4924 16.3109 64.4924C13.0808 64.4924 9.98256 65.7735 7.69595 68.0542Z" fill="#4262A4"/>
<path d="M67.4423 7.0657C65.7386 8.76912 64.5778 10.9394 64.1081 13.3022C63.6379 15.6649 63.8791 18.1139 64.8013 20.3396C65.7235 22.5652 67.2849 24.4676 69.2882 25.8059C71.2921 27.1443 73.6475 27.8587 76.057 27.8587C78.467 27.8587 80.8224 27.1443 82.8263 25.8059C84.8296 24.4676 86.391 22.5652 87.3132 20.3396C88.2354 18.1139 88.4766 15.6649 88.0064 13.3022C87.5367 10.9394 86.3759 8.76912 84.6722 7.0657C82.3858 4.78485 79.2873 3.50391 76.057 3.50391C72.8272 3.50391 69.7286 4.78485 67.4423 7.0657Z" fill="#4262A4"/>
<path d="M53.6511 78.7739C53.1617 78.7739 52.6749 78.7098 52.2022 78.5832L33.1626 73.4827C32.5278 70.0934 30.883 66.975 28.4442 64.5369C26.0053 62.0989 22.8861 60.4541 19.4959 59.8197L14.3945 40.7868C14.1416 39.8374 14.1423 38.8383 14.3967 37.8894C14.6511 36.9404 15.1501 36.0748 15.8439 35.3791L35.3859 15.8418C36.0811 15.1468 36.9469 14.647 37.8965 14.3926C38.8462 14.1383 39.846 14.1383 40.7956 14.3928L59.3014 19.3501C60.0354 22.7184 61.7699 25.7865 64.2777 28.1526C66.7855 30.5186 69.9497 32.0723 73.3555 32.6101L78.6022 52.1903C78.855 53.14 78.8545 54.1391 78.5997 55.0878C78.3454 56.037 77.8465 56.9025 77.1523 57.5985L57.6103 77.1352C57.0917 77.6562 56.4742 78.0698 55.7947 78.3507C55.1151 78.6322 54.3866 78.7759 53.6511 78.7739Z" fill="#4262A4"/>
</svg>
